<svg width="26" height="26" viewBox="0 0 26 26" fill="none" xmlns="http://www.w3.org/2000/svg">
<g clip-path="url(#clip0_150_36)">
<path d="M9.75 0H8.125V1.625H9.75V0Z" fill="black"/>
<path d="M11.375 0H9.75V1.625H11.375V0Z" fill="black"/>
<path d="M13 0H11.375V1.625H13V0Z" fill="black"/>
<path d="M14.625 0H13V1.625H14.625V0Z" fill="black"/>
<path d="M16.25 0H14.625V1.625H16.25V0Z" fill="black"/>
<path d="M17.875 0H16.25V1.625H17.875V0Z" fill="black"/>
<path d="M6.5 1.625H4.875V3.25H6.5V1.625Z" fill="black"/>
<path d="M8.125 1.625H6.5V3.25H8.125V1.625Z" fill="black"/>
<path d="M9.75 1.625H8.125V3.25H9.75V1.625Z" fill="#FFB039"/>
<path d="M11.375 1.625H9.75V3.25H11.375V1.625Z" fill="#FFB039"/>
<path d="M13 1.625H11.375V3.25H13V1.625Z" fill="#FFB039"/>
<path d="M14.625 1.625H13V3.25H14.625V1.625Z" fill="#FFB039"/>
<path d="M16.25 1.625H14.625V3.25H16.25V1.625Z" fill="#FFB039"/>
<path d="M17.875 1.625H16.25V3.25H17.875V1.625Z" fill="#FFB039"/>
<path d="M19.5 1.625H17.875V3.25H19.5V1.625Z" fill="black"/>
<path d="M21.125 1.625H19.5V3.25H21.125V1.625Z" fill="black"/>
<path d="M4.875 3.25H3.25V4.875H4.875V3.25Z" fill="black"/>
<path d="M6.5 3.25H4.875V4.875H6.5V3.25Z" fill="#FFB039"/>
<path d="M8.125 3.25H6.5V4.875H8.125V3.25Z" fill="#FFB039"/>
<path d="M9.75 3.25H8.125V4.875H9.75V3.25Z" fill="#FFFFFB"/>
<path d="M11.375 3.25H9.75V4.875H11.375V3.25Z" fill="#FFE85E"/>
<path d="M13 3.25H11.375V4.875H13V3.25Z" fill="#FFE85E"/>
<path d="M14.625 3.25H13V4.875H14.625V3.25Z" fill="#FFE85E"/>
<path d="M16.25 3.25H14.625V4.875H16.25V3.25Z" fill="#FFE85E"/>
<path d="M17.875 3.25H16.25V4.875H17.875V3.25Z" fill="#FFE85E"/>
<path d="M19.5 3.25H17.875V4.875H19.5V3.25Z" fill="#DB7103"/>
<path d="M21.125 3.25H19.5V4.875H21.125V3.25Z" fill="#DB7103"/>
<path d="M22.75 3.25H21.125V4.875H22.75V3.25Z" fill="black"/>
<path d="M3.25 4.875H1.625V6.5H3.25V4.875Z" fill="black"/>
<path d="M4.875 4.875H3.25V6.5H4.875V4.875Z" fill="#FFB039"/>
<path d="M6.5 4.875H4.875V6.5H6.5V4.875Z" fill="#FFFFFB"/>
<path d="M8.125 4.875H6.5V6.5H8.125V4.875Z" fill="#FFFFFB"/>
<path d="M9.75 4.875H8.125V6.5H9.75V4.875Z" fill="#FFE85E"/>
<path d="M11.375 4.875H9.75V6.5H11.375V4.875Z" fill="#DB7103"/>
<path d="M13 4.875H11.375V6.5H13V4.875Z" fill="#DB7103"/>
<path d="M14.625 4.875H13V6.5H14.625V4.875Z" fill="#DB7103"/>
<path d="M16.25 4.875H14.625V6.5H16.25V4.875Z" fill="#DB7103"/>
<path d="M17.875 4.875H16.25V6.5H17.875V4.875Z" fill="#FFE85E"/>
<path d="M19.5 4.875H17.875V6.5H19.5V4.875Z" fill="#FFE85E"/>
<path d="M21.125 4.875H19.5V6.5H21.125V4.875Z" fill="#FFE85E"/>
<path d="M22.75 4.875H21.125V6.5H22.75V4.875Z" fill="#DB7103"/>
<path d="M24.375 4.875H22.75V6.5H24.375V4.875Z" fill="black"/>
<path d="M3.25 6.5H1.625V8.125H3.25V6.5Z" fill="black"/>
<path d="M4.875 6.5H3.25V8.125H4.875V6.5Z" fill="#FFB039"/>
<path d="M6.5 6.5H4.875V8.125H6.5V6.5Z" fill="#FFFFFB"/>
<path d="M8.125 6.5H6.5V8.125H8.125V6.5Z" fill="#DB7103"/>
<path d="M9.75 6.5H8.125V8.125H9.75V6.5Z" fill="#DB7103"/>
<path d="M11.375 6.5H9.75V8.125H11.375V6.5Z" fill="#FFB039"/>
<path d="M13 6.5H11.375V8.125H13V6.5Z" fill="#FFB039"/>
<path d="M14.625 6.5H13V8.125H14.625V6.5Z" fill="#FFB039"/>
<path d="M16.25 6.5H14.625V8.125H16.25V6.5Z" fill="#FFB039"/>
<path d="M17.875 6.5H16.25V8.125H17.875V6.5Z" fill="#DB7103"/>
<path d="M19.5 6.5H17.875V8.125H19.5V6.5Z" fill="#DB7103"/>
<path d="M21.125 6.5H19.5V8.125H21.125V6.5Z" fill="#FFE85E"/>
<path d="M22.75 6.5H21.125V8.125H22.75V6.5Z" fill="#DB7103"/>
<path d="M24.375 6.5H22.75V8.125H24.375V6.5Z" fill="black"/>
<path d="M1.625 8.125H0V9.75H1.625V8.125Z" fill="black"/>
<path d="M3.25 8.125H1.625V9.75H3.25V8.125Z" fill="#FFB039"/>
<path d="M4.875 8.125H3.25V9.75H4.875V8.125Z" fill="#FFFFFB"/>
<path d="M6.5 8.125H4.875V9.75H6.5V8.125Z" fill="#FFE85E"/>
<path d="M8.125 8.125H6.5V9.75H8.125V8.125Z" fill="#DB7103"/>
<path d="M9.75 8.125H8.125V9.75H9.75V8.125Z" fill="#FFB039"/>
<path d="M11.375 8.125H9.75V9.75H11.375V8.125Z" fill="#FFB039"/>
<path d="M13 8.125H11.375V9.75H13V8.125Z" fill="#FFB039"/>
<path d="M14.625 8.125H13V9.75H14.625V8.125Z" fill="#FFB039"/>
<path d="M16.25 8.125H14.625V9.75H16.25V8.125Z" fill="#FFE85E"/>
<path d="M17.875 8.125H16.25V9.75H17.875V8.125Z" fill="#FFE85E"/>
<path d="M19.5 8.125H17.875V9.75H19.5V8.125Z" fill="#DB7103"/>
<path d="M21.125 8.125H19.5V9.75H21.125V8.125Z" fill="#FFE85E"/>
<path d="M22.75 8.125H21.125V9.75H22.75V8.125Z" fill="#FFE85E"/>
<path d="M24.375 8.125H22.75V9.75H24.375V8.125Z" fill="#DB7103"/>
<path d="M26 8.125H24.375V9.75H26V8.125Z" fill="black"/>
<path d="M1.625 9.75H0V11.375H1.625V9.75Z" fill="black"/>
<path d="M3.25 9.75H1.625V11.375H3.25V9.75Z" fill="#FFB039"/>
<path d="M4.875 9.75H3.25V11.375H4.875V9.75Z" fill="#FFE85E"/>
<path d="M6.5 9.75H4.875V11.375H6.5V9.75Z" fill="#DB7103"/>
<path d="M8.125 9.75H6.5V11.375H8.125V9.75Z" fill="#FFB039"/>
<path d="M9.75 9.75H8.125V11.375H9.75V9.75Z" fill="#FFB039"/>
<path d="M11.375 9.75H9.75V11.375H11.375V9.75Z" fill="#FFB039"/>
<path d="M13 9.75H11.375V11.375H13V9.75Z" fill="#FFE85E"/>
<path d="M14.625 9.75H13V11.375H14.625V9.75Z" fill="#FFE85E"/>
<path d="M16.25 9.75H14.625V11.375H16.25V9.75Z" fill="#FFE85E"/>
<path d="M17.875 9.75H16.25V11.375H17.875V9.75Z" fill="#FFE85E"/>
<path d="M19.5 9.75H17.875V11.375H19.5V9.75Z" fill="#FFE85E"/>
<path d="M21.125 9.75H19.5V11.375H21.125V9.75Z" fill="#FFB039"/>
<path d="M22.75 9.75H21.125V11.375H22.75V9.75Z" fill="#FFE85E"/>
<path d="M24.375 9.75H22.75V11.375H24.375V9.75Z" fill="#DB7103"/>
<path d="M26 9.75H24.375V11.375H26V9.75Z" fill="black"/>
<path d="M1.625 11.375H0V13H1.625V11.375Z" fill="black"/>
<path d="M3.25 11.375H1.625V13H3.25V11.375Z" fill="#FFB039"/>
<path d="M4.875 11.375H3.25V13H4.875V11.375Z" fill="#FFE85E"/>
<path d="M6.5 11.375H4.875V13H6.5V11.375Z" fill="#DB7103"/>
<path d="M8.125 11.375H6.5V13H8.125V11.375Z" fill="#FFB039"/>
<path d="M9.75 11.375H8.125V13H9.75V11.375Z" fill="#FFB039"/>
<path d="M11.375 11.375H9.75V13H11.375V11.375Z" fill="#FFE85E"/>
<path d="M13 11.375H11.375V13H13V11.375Z" fill="#FFE85E"/>
<path d="M14.625 11.375H13V13H14.625V11.375Z" fill="#FFE85E"/>
<path d="M16.25 11.375H14.625V13H16.25V11.375Z" fill="#FFE85E"/>
<path d="M17.875 11.375H16.25V13H17.875V11.375Z" fill="#FFE85E"/>
<path d="M19.5 11.375H17.875V13H19.5V11.375Z" fill="#FFFFFB"/>
<path d="M21.125 11.375H19.5V13H21.125V11.375Z" fill="#FFB039"/>
<path d="M22.75 11.375H21.125V13H22.75V11.375Z" fill="#FFE85E"/>
<path d="M24.375 11.375H22.75V13H24.375V11.375Z" fill="#DB7103"/>
<path d="M26 11.375H24.375V13H26V11.375Z" fill="black"/>
<path d="M1.625 13H0V14.625H1.625V13Z" fill="black"/>
<path d="M3.25 13H1.625V14.625H3.25V13Z" fill="#FFB039"/>
<path d="M4.875 13H3.25V14.625H4.875V13Z" fill="#FFE85E"/>
<path d="M6.5 13H4.875V14.625H6.5V13Z" fill="#DB7103"/>
<path d="M8.125 13H6.5V14.625H8.125V13Z" fill="#FFB039"/>
<path d="M9.75 13H8.125V14.625H9.75V13Z" fill="#FFB039"/>
<path d="M11.375 13H9.75V14.625H11.375V13Z" fill="#FFE85E"/>
<path d="M13 13H11.375V14.625H13V13Z" fill="#FFE85E"/>
<path d="M14.625 13H13V14.625H14.625V13Z" fill="#FFE85E"/>
<path d="M16.25 13H14.625V14.625H16.25V13Z" fill="#FFE85E"/>
<path d="M17.875 13H16.25V14.625H17.875V13Z" fill="#FFE85E"/>
<path d="M19.5 13H17.875V14.625H19.5V13Z" fill="#FFFFFB"/>
<path d="M21.125 13H19.5V14.625H21.125V13Z" fill="#FFB039"/>
<path d="M22.75 13H21.125V14.625H22.75V13Z" fill="#FFE85E"/>
<path d="M24.375 13H22.75V14.625H24.375V13Z" fill="#DB7103"/>
<path d="M26 13H24.375V14.625H26V13Z" fill="black"/>
<path d="M1.625 14.625H0V16.25H1.625V14.625Z" fill="black"/>
<path d="M3.25 14.625H1.625V16.25H3.25V14.625Z" fill="#FFB039"/>
<path d="M4.875 14.625H3.25V16.25H4.875V14.625Z" fill="#FFE85E"/>
<path d="M6.5 14.625H4.875V16.25H6.5V14.625Z" fill="#DB7103"/>
<path d="M8.125 14.625H6.5V16.25H8.125V14.625Z" fill="#FFB039"/>
<path d="M9.75 14.625H8.125V16.25H9.75V14.625Z" fill="#FFE85E"/>
<path d="M11.375 14.625H9.75V16.25H11.375V14.625Z" fill="#FFE85E"/>
<path d="M13 14.625H11.375V16.25H13V14.625Z" fill="#FFE85E"/>
<path d="M14.625 14.625H13V16.25H14.625V14.625Z" fill="#FFE85E"/>
<path d="M16.25 14.625H14.625V16.25H16.25V14.625Z" fill="#FFE85E"/>
<path d="M17.875 14.625H16.25V16.25H17.875V14.625Z" fill="#FFE85E"/>
<path d="M19.5 14.625H17.875V16.25H19.5V14.625Z" fill="#FFFFFB"/>
<path d="M21.125 14.625H19.5V16.25H21.125V14.625Z" fill="#FFB039"/>
<path d="M22.75 14.625H21.125V16.25H22.75V14.625Z" fill="#FFE85E"/>
<path d="M24.375 14.625H22.75V16.25H24.375V14.625Z" fill="#DB7103"/>
<path d="M26 14.625H24.375V16.25H26V14.625Z" fill="black"/>
<path d="M1.625 16.25H0V17.875H1.625V16.25Z" fill="black"/>
<path d="M3.25 16.25H1.625V17.875H3.25V16.25Z" fill="#FFB039"/>
<path d="M4.875 16.25H3.25V17.875H4.875V16.25Z" fill="#FFE85E"/>
<path d="M6.5 16.25H4.875V17.875H6.5V16.25Z" fill="#FFE85E"/>
<path d="M8.125 16.25H6.5V17.875H8.125V16.25Z" fill="#DB7103"/>
<path d="M9.75 16.25H8.125V17.875H9.75V16.25Z" fill="#FFE85E"/>
<path d="M11.375 16.25H9.75V17.875H11.375V16.25Z" fill="#FFE85E"/>
<path d="M13 16.25H11.375V17.875H13V16.25Z" fill="#FFE85E"/>
<path d="M14.625 16.25H13V17.875H14.625V16.25Z" fill="#FFE85E"/>
<path d="M16.25 16.25H14.625V17.875H16.25V16.25Z" fill="#FFE85E"/>
<path d="M17.875 16.25H16.25V17.875H17.875V16.25Z" fill="#FFFFFB"/>
<path d="M19.5 16.25H17.875V17.875H19.5V16.25Z" fill="#FFB039"/>
<path d="M21.125 16.25H19.5V17.875H21.125V16.25Z" fill="#FFE85E"/>
<path d="M22.75 16.25H21.125V17.875H22.75V16.25Z" fill="#FFE85E"/>
<path d="M24.375 16.25H22.75V17.875H24.375V16.25Z" fill="#DB7103"/>
<path d="M26 16.25H24.375V17.875H26V16.25Z" fill="black"/>
<path d="M3.25 17.875H1.625V19.5H3.25V17.875Z" fill="black"/>
<path d="M4.875 17.875H3.25V19.5H4.875V17.875Z" fill="#FFB039"/>
<path d="M6.5 17.875H4.875V19.5H6.5V17.875Z" fill="#FFE85E"/>
<path d="M8.125 17.875H6.5V19.5H8.125V17.875Z" fill="#DB7103"/>
<path d="M9.75 17.875H8.125V19.5H9.75V17.875Z" fill="#DB7103"/>
<path d="M11.375 17.875H9.75V19.5H11.375V17.875Z" fill="#FFE85E"/>
<path d="M13 17.875H11.375V19.5H13V17.875Z" fill="#FFFFFB"/>
<path d="M14.625 17.875H13V19.5H14.625V17.875Z" fill="#FFFFFB"/>
<path d="M16.25 17.875H14.625V19.5H16.25V17.875Z" fill="#FFFFFB"/>
<path d="M17.875 17.875H16.25V19.5H17.875V17.875Z" fill="#FFB039"/>
<path d="M19.5 17.875H17.875V19.5H19.5V17.875Z" fill="#FFB039"/>
<path d="M21.125 17.875H19.5V19.5H21.125V17.875Z" fill="#FFE85E"/>
<path d="M22.75 17.875H21.125V19.5H22.75V17.875Z" fill="#DB7103"/>
<path d="M24.375 17.875H22.75V19.5H24.375V17.875Z" fill="black"/>
<path d="M3.25 19.5H1.625V21.125H3.25V19.5Z" fill="black"/>
<path d="M4.875 19.5H3.25V21.125H4.875V19.5Z" fill="#FFB039"/>
<path d="M6.5 19.5H4.875V21.125H6.5V19.5Z" fill="#FFE85E"/>
<path d="M8.125 19.5H6.5V21.125H8.125V19.5Z" fill="#FFE85E"/>
<path d="M9.75 19.5H8.125V21.125H9.75V19.5Z" fill="#FFE85E"/>
<path d="M11.375 19.5H9.75V21.125H11.375V19.5Z" fill="#FFB039"/>
<path d="M13 19.5H11.375V21.125H13V19.5Z" fill="#FFB039"/>
<path d="M14.625 19.5H13V21.125H14.625V19.5Z" fill="#FFB039"/>
<path d="M16.25 19.5H14.625V21.125H16.25V19.5Z" fill="#FFB039"/>
<path d="M17.875 19.5H16.25V21.125H17.875V19.5Z" fill="#FFE85E"/>
<path d="M19.5 19.5H17.875V21.125H19.5V19.5Z" fill="#FFE85E"/>
<path d="M21.125 19.5H19.5V21.125H21.125V19.5Z" fill="#FFE85E"/>
<path d="M22.75 19.5H21.125V21.125H22.75V19.5Z" fill="#DB7103"/>
<path d="M24.375 19.5H22.75V21.125H24.375V19.5Z" fill="black"/>
<path d="M4.875 21.125H3.25V22.75H4.875V21.125Z" fill="black"/>
<path d="M6.5 21.125H4.875V22.75H6.5V21.125Z" fill="#FFB039"/>
<path d="M8.125 21.125H6.5V22.75H8.125V21.125Z" fill="#FFB039"/>
<path d="M9.75 21.125H8.125V22.75H9.75V21.125Z" fill="#FFE85E"/>
<path d="M11.375 21.125H9.75V22.75H11.375V21.125Z" fill="#FFE85E"/>
<path d="M13 21.125H11.375V22.75H13V21.125Z" fill="#FFE85E"/>
<path d="M14.625 21.125H13V22.75H14.625V21.125Z" fill="#FFE85E"/>
<path d="M16.25 21.125H14.625V22.75H16.25V21.125Z" fill="#FFE85E"/>
<path d="M17.875 21.125H16.25V22.75H17.875V21.125Z" fill="#FFE85E"/>
<path d="M19.5 21.125H17.875V22.75H19.5V21.125Z" fill="#DB7103"/>
<path d="M21.125 21.125H19.5V22.75H21.125V21.125Z" fill="#DB7103"/>
<path d="M22.75 21.125H21.125V22.75H22.75V21.125Z" fill="black"/>
<path d="M6.5 22.75H4.875V24.375H6.5V22.75Z" fill="black"/>
<path d="M8.125 22.75H6.5V24.375H8.125V22.75Z" fill="black"/>
<path d="M9.75 22.75H8.125V24.375H9.75V22.75Z" fill="#FFB039"/>
<path d="M11.375 22.75H9.75V24.375H11.375V22.75Z" fill="#FFB039"/>
<path d="M13 22.75H11.375V24.375H13V22.75Z" fill="#FFB039"/>
<path d="M14.625 22.75H13V24.375H14.625V22.75Z" fill="#FFB039"/>
<path d="M16.25 22.75H14.625V24.375H16.25V22.75Z" fill="#FFB039"/>
<path d="M17.875 22.75H16.25V24.375H17.875V22.75Z" fill="#FFB039"/>
<path d="M19.5 22.75H17.875V24.375H19.5V22.75Z" fill="black"/>
<path d="M21.125 22.75H19.5V24.375H21.125V22.75Z" fill="black"/>
<path d="M9.75 24.375H8.125V26H9.75V24.375Z" fill="black"/>
<path d="M11.375 24.375H9.75V26H11.375V24.375Z" fill="black"/>
<path d="M13 24.375H11.375V26H13V24.375Z" fill="black"/>
<path d="M14.625 24.375H13V26H14.625V24.375Z" fill="black"/>
<path d="M16.25 24.375H14.625V26H16.25V24.375Z" fill="black"/>
<path d="M17.875 24.375H16.25V26H17.875V24.375Z" fill="black"/>
</g>
<defs>
<clipPath id="clip0_150_36">
<rect width="26" height="26" fill="white"/>
</clipPath>
</defs>
</svg>
